<?xml version="1.0" encoding="UTF-8" standalone="no"?>
<!-- Created with Inkscape (http://www.inkscape.org/) -->

<svg
   xmlns:dc="http://purl.org/dc/elements/1.1/"
   xmlns:cc="http://creativecommons.org/ns#"
   xmlns:rdf="http://www.w3.org/1999/02/22-rdf-syntax-ns#"
   xmlns:svg="http://www.w3.org/2000/svg"
   xmlns="http://www.w3.org/2000/svg"
   xmlns:sodipodi="http://sodipodi.sourceforge.net/DTD/sodipodi-0.dtd"
   xmlns:inkscape="http://www.inkscape.org/namespaces/inkscape"
   id="svg2"
   version="1.1"
   inkscape:version="0.48.5 r10040"
   width="885.82672"
   height="885.82672"
   xml:space="preserve"
   sodipodi:docname="A_BOTTOM_33.svg"><metadata
     id="metadata8"><rdf:RDF><cc:Work
         rdf:about=""><dc:format>image/svg+xml</dc:format><dc:type
           rdf:resource="http://purl.org/dc/dcmitype/StillImage" /><dc:title></dc:title></cc:Work></rdf:RDF></metadata><defs
     id="defs6" /><sodipodi:namedview
     pagecolor="#ffffff"
     bordercolor="#666666"
     borderopacity="1"
     objecttolerance="10"
     gridtolerance="10"
     guidetolerance="10"
     inkscape:pageopacity="0"
     inkscape:pageshadow="2"
     inkscape:window-width="2048"
     inkscape:window-height="1089"
     id="namedview4"
     showgrid="false"
     inkscape:zoom="0.44854049"
     inkscape:cx="-201.74514"
     inkscape:cy="254.26286"
     inkscape:window-x="-8"
     inkscape:window-y="-8"
     inkscape:window-maximized="1"
     inkscape:current-layer="g10"
     units="mm" /><g
     id="g10"
     inkscape:groupmode="layer"
     inkscape:label="dev-TOKEN_NET_A_BOTTOM-33"
     transform="matrix(1.25,0,0,-1.25,-168.30711,1273.8159)"><rect
       width="708.66144"
       height="708.66144"
       x="134.64569"
       y="-1019.0528"
       id="rect2990"
       style="fill:#999999;fill-opacity:1;stroke:none"
       transform="scale(1,-1)" /><rect
       width="566.92914"
       height="566.92914"
       x="205.5119"
       y="-948.18683"
       id="rect2990-1"
       style="fill:#ffffff;fill-opacity:1;stroke:none"
       transform="scale(1,-1)" /><g
       id="g12"
       transform="translate(69.450376,69.450332)"><g
   id="g14"
   transform="matrix(1,0,0,-1,0,1190.5437)"><path
     d="m 136.063,311.809 566.926,0 0,566.926 -566.926,0 0,-566.926 z"
     style="fill:none;stroke:#b3b3b3;stroke-width:2.83462811;stroke-linecap:butt;stroke-linejoin:miter;stroke-miterlimit:10;stroke-opacity:1;stroke-dasharray:none"
     id="path16"
     inkscape:connector-curvature="0" /></g><path
   d="m 183.305,831.489 472.438,0 0,-472.438 -472.438,0 0,472.438 z"
   style="fill:#000000;fill-opacity:1;fill-rule:nonzero;stroke:none"
   id="path18"
   inkscape:connector-curvature="0" /><path
   d="m 372.281,737.005 47.242,0 0,-47.243 -47.242,0 0,47.243 z m 47.242,0 47.243,0 0,-47.243 -47.243,0 0,47.243 z m 94.489,0 47.242,0 0,-47.243 -47.242,0 0,47.243 z m -236.219,-47.246 47.242,0 0,-47.243 -47.242,0 0,47.243 z m 47.246,0 47.242,0 0,-47.243 -47.242,0 0,47.243 z m 94.484,0 47.243,0 0,-47.243 -47.243,0 0,47.243 z m 94.489,0 47.242,0 0,-47.243 -47.242,0 0,47.243 z m -94.489,-47.243 47.243,0 0,-47.242 -47.243,0 0,47.242 z m -94.484,-47.246 47.242,0 0,-47.242 -47.242,0 0,47.242 z m 141.731,0 47.242,0 0,-47.242 -47.242,0 0,47.242 z m -141.731,-47.242 47.242,0 0,-47.242 -47.242,0 0,47.242 z m 47.242,0 47.242,0 0,-47.242 -47.242,0 0,47.242 z m 47.242,0 47.243,0 0,-47.242 -47.243,0 0,47.242 z m 47.247,0 47.242,0 0,-47.242 -47.242,0 0,47.242 z m 47.242,0 47.242,0 0,-47.242 -47.242,0 0,47.242 z m -188.973,-47.242 47.242,0 0,-47.242 -47.242,0 0,47.242 z m 94.484,0 47.243,0 0,-47.242 -47.243,0 0,47.242 z"
   style="fill:#ffffff;fill-opacity:1;fill-rule:nonzero;stroke:none"
   id="path20"
   inkscape:connector-curvature="0" /><text
   transform="matrix(1,0,0,-1,191.80859,367.55539)"
   id="text22"><tspan
     style="font-size:8.50388336px;font-variant:normal;font-weight:normal;writing-mode:lr-tb;fill:#808080;fill-opacity:1;fill-rule:nonzero;stroke:none;font-family:DejaVu Sans;-inkscape-font-specification:DejaVuSans"
     x="0 2.3555756 4.7111511 10.102613 15.026361 20.222233 25.145983 27.501558 30.197289 38.480072 43.684448 47.15403 52.077778 57.307667 60.802765 63.498493 70.616241 76.024712 81.433182 84.128914 87.445427 92.471222 97.879692 100.57542 105.95838 109.27489 117.36209 122.75355 127.98344 133.00923 135.86653 138.56227 143.74963 150.4422 156.01224 161.35268 167.71358 171.96552 177.79918 184.49174 189.67911 194.86649 201.55904 208.88939 211.58511 214.87611 221.23701 226.4669 229.80043 232.49615 238.31282 241.17012 243.86586 249.27432 254.68279"
     y="0"
     sodipodi:role="line"
     id="tspan24">libkoki marker #33 (v0.5) dev: TOKEN_BOTTOM (Net A; 33)</tspan></text>

<path
   d="m 236.457,784.247 c 0,-3.262 -2.645,-5.906 -5.906,-5.906 -3.262,0 -5.906,2.644 -5.906,5.906 0,3.262 2.644,5.906 5.906,5.906 3.261,0 5.906,-2.644 5.906,-5.906"
   style="fill:#333333;fill-opacity:1;fill-rule:nonzero;stroke:none"
   id="path26"
   inkscape:connector-curvature="0" /></g></g></svg>