<?xml version="1.0" encoding="UTF-8" standalone="no"?>
<svg
   xmlns:dc="http://purl.org/dc/elements/1.1/"
   xmlns:cc="http://creativecommons.org/ns#"
   xmlns:rdf="http://www.w3.org/1999/02/22-rdf-syntax-ns#"
   xmlns:svg="http://www.w3.org/2000/svg"
   xmlns="http://www.w3.org/2000/svg"
   xml:space="preserve"
   height="885.82672"
   width="885.82672"
   version="1.1"
   id="svg2"><metadata
     id="metadata8"><rdf:RDF><cc:Work
         rdf:about=""><dc:format>image/svg+xml</dc:format><dc:type
           rdf:resource="http://purl.org/dc/dcmitype/StillImage" /><dc:title></dc:title></cc:Work></rdf:RDF></metadata><defs
     id="defs6" /><g
     transform="matrix(1.25,0,0,-1.25,-168.30711,1273.8159)"
     id="g10"><rect
       transform="scale(1,-1)"
       style="fill:#ff6600;fill-opacity:1;stroke:none"
       id="rect2990"
       y="-1019.0528"
       x="134.64569"
       height="708.66144"
       width="708.66144" /><rect
       transform="scale(1,-1)"
       style="fill:#ffffff;fill-opacity:1;stroke:none"
       id="rect2990-1"
       y="-948.18695"
       x="205.5119"
       height="566.92914"
       width="566.92914" /><g
       transform="translate(69.450376,69.450332)"
       id="g12"><g
         transform="matrix(1,0,0,-1,0,1190.5437)"
         id="g14"><path
           id="path16"
           style="fill:none;stroke:#b3b3b3;stroke-width:2.83462811;stroke-linecap:butt;stroke-linejoin:miter;stroke-miterlimit:10;stroke-opacity:1;stroke-dasharray:none"
           d="m 136.063,311.809 566.926,0 0,566.926 -566.926,0 0,-566.926 z" /></g><path
         id="path18"
         style="fill:#000000;fill-opacity:1;fill-rule:nonzero;stroke:none"
         d="m 183.305,831.489 472.438,0 0,-472.438 -472.438,0 0,472.438 z" /><path
         id="path20"
         style="fill:#ffffff;fill-opacity:1;fill-rule:nonzero;stroke:none"
         d="m 277.793,737.005 47.242,0 0,-47.243 -47.242,0 0,47.243 z m 47.246,0 47.242,0 0,-47.243 -47.242,0 0,47.243 z m 188.973,0 47.242,0 0,-47.243 -47.242,0 0,47.243 z m -141.731,-47.246 47.242,0 0,-47.243 -47.242,0 0,47.243 z m 47.242,0 47.243,0 0,-47.243 -47.243,0 0,47.243 z m 0,-47.243 47.243,0 0,-47.242 -47.243,0 0,47.242 z m 94.489,0 47.242,0 0,-47.242 -47.242,0 0,47.242 z m -236.219,-47.246 47.242,0 0,-47.242 -47.242,0 0,47.242 z m 47.246,0 47.242,0 0,-47.242 -47.242,0 0,47.242 z m 141.731,0 47.242,0 0,-47.242 -47.242,0 0,47.242 z m -94.489,-47.242 47.242,0 0,-47.242 -47.242,0 0,47.242 z m 47.242,0 47.243,0 0,-47.242 -47.243,0 0,47.242 z m 47.247,0 47.242,0 0,-47.242 -47.242,0 0,47.242 z m 47.242,0 47.242,0 0,-47.242 -47.242,0 0,47.242 z m -236.219,-47.242 47.242,0 0,-47.242 -47.242,0 0,47.242 z m 47.246,0 47.242,0 0,-47.242 -47.242,0 0,47.242 z m 47.242,0 47.242,0 0,-47.242 -47.242,0 0,47.242 z" /><text
         id="text22"
         transform="matrix(1,0,0,-1,191.80859,367.55539)"><tspan
           id="tspan24"
           y="0"
           x="0 2.3555756 4.7111511 10.102613 15.026361 20.222233 25.145983 27.501558 30.197289 38.480072 43.684448 47.15403 52.077778 57.307667 60.802765 63.498493 70.616241 76.024712 81.433182 84.128914 87.445427 92.471222 97.879692 100.57542 105.95838 109.27489 117.36209 122.75355 127.98344 133.00923 135.86653 138.56227 143.74963 150.4422 156.01224 161.35268 167.71358 171.96552 177.35698 179.85713 186.40512 191.77107 194.4668 197.78331 204.14421 209.3741 212.70763 215.37784 221.2115 223.90724 226.60297 232.53868 237.73456 241.22964 246.61261 251.8425 255.33759 258.03333 263.4418 266.2991 268.99481 274.37778 279.78625"
           style="font-size:8.50388336px;font-variant:normal;font-weight:normal;writing-mode:lr-tb;fill:#808080;fill-opacity:1;fill-rule:nonzero;stroke:none;font-family:DejaVu Sans;-inkscape-font-specification:DejaVuSans">libkoki marker #41 (v0.5) dev: TOKEN_SIDE (Net B, Corner 1; 41)</tspan></text>
<path
         id="path26"
         style="fill:#333333;fill-opacity:1;fill-rule:nonzero;stroke:none"
         d="m 236.457,784.247 c 0,-3.262 -2.645,-5.906 -5.906,-5.906 -3.262,0 -5.906,2.644 -5.906,5.906 0,3.262 2.644,5.906 5.906,5.906 3.261,0 5.906,-2.644 5.906,-5.906" /></g></g></svg>