<?xml version="1.0" encoding="UTF-8" standalone="no"?>
<svg
   xmlns:dc="http://purl.org/dc/elements/1.1/"
   xmlns:cc="http://creativecommons.org/ns#"
   xmlns:rdf="http://www.w3.org/1999/02/22-rdf-syntax-ns#"
   xmlns:svg="http://www.w3.org/2000/svg"
   xmlns="http://www.w3.org/2000/svg"
   xml:space="preserve"
   height="885.82672"
   width="885.82672"
   version="1.1"
   id="svg2"><metadata
     id="metadata8"><rdf:RDF><cc:Work
         rdf:about=""><dc:format>image/svg+xml</dc:format><dc:type
           rdf:resource="http://purl.org/dc/dcmitype/StillImage" /><dc:title></dc:title></cc:Work></rdf:RDF></metadata><defs
     id="defs6" /><g
     transform="matrix(1.25,0,0,-1.25,-8.5743427e-4,885.8263)"
     id="g10"><rect
       transform="scale(1,-1)"
       style="fill:#ffff00;fill-opacity:1;stroke:none"
       id="rect2990"
       y="-708.66107"
       x="0.00068594742"
       height="708.66144"
       width="708.66144" /><rect
       transform="scale(1,-1)"
       style="fill:#ffffff;fill-opacity:1;stroke:none"
       id="rect2990-1"
       y="-637.7951"
       x="70.866837"
       height="566.92914"
       width="566.92914" /><g
       transform="translate(69.450374,69.450352)"
       id="g12"><path
         id="path14"
         style="fill:none;stroke:#b3b3b3;stroke-width:2.83462811;stroke-linecap:butt;stroke-linejoin:miter;stroke-miterlimit:10;stroke-opacity:1;stroke-dasharray:none"
         d="m 1.418,568.343 566.926,0 0,-566.926 -566.926,0 0,566.926 z" /><path
         id="path16"
         style="fill:#000000;fill-opacity:1;fill-rule:nonzero;stroke:none"
         d="m 48.66,521.097 472.438,0 0,-472.438 -472.438,0 0,472.438 z" /><path
         id="path18"
         style="fill:#ffffff;fill-opacity:1;fill-rule:nonzero;stroke:none"
         d="m 190.395,426.612 47.242,0 0,-47.242 -47.242,0 0,47.242 z m 0,-94.488 47.242,0 0,-47.242 -47.242,0 0,47.242 z m 47.242,0 47.242,0 0,-47.242 -47.242,0 0,47.242 z m 141.73,0 47.242,0 0,-47.242 -47.242,0 0,47.242 z m -47.242,-47.246 47.242,0 0,-47.242 -47.242,0 0,47.242 z m 47.242,0 47.242,0 0,-47.242 -47.242,0 0,47.242 z m -236.219,-47.242 47.243,0 0,-47.243 -47.243,0 0,47.243 z m 94.489,0 47.242,0 0,-47.243 -47.242,0 0,47.243 z m 47.242,0 47.242,0 0,-47.243 -47.242,0 0,47.243 z m 47.246,0 47.242,0 0,-47.243 -47.242,0 0,47.243 z m 47.242,0 47.242,0 0,-47.243 -47.242,0 0,47.243 z m -188.972,-47.243 47.242,0 0,-47.242 -47.242,0 0,47.242 z m 47.242,0 47.242,0 0,-47.242 -47.242,0 0,47.242 z" /><text
         id="text20"
         transform="matrix(1,0,0,-1,57.162902,57.16401)"><tspan
           id="tspan22"
           y="0"
           x="0 2.3555756 4.7111511 10.102613 15.00085 20.196722 25.12047 27.476046 30.171778 38.454559 43.633423 47.103008 52.026756 57.256645 60.75174 63.447472 70.565224 75.948181 81.356651 84.052376 87.368896 92.394691 97.803162 100.47338 105.85634 109.17285 117.25154 122.643 127.87289 132.89868 135.73048 138.42621 143.61357 150.30614 155.87617 161.1911 167.552 171.80396 177.1954 179.69556 186.24355 191.58398 194.27971 197.59622 203.95712 209.18701 212.52054 215.17375 221.10947 223.80519 226.50093 232.43663 237.60699 241.1021 246.48505 251.71494 255.21004 257.90576 263.31424 266.14603 268.84177 274.21622 279.62469"
           style="font-size:8.50388336px;font-variant:normal;font-weight:normal;writing-mode:lr-tb;fill:#808080;fill-opacity:1;fill-rule:nonzero;stroke:none;font-family:DejaVu Sans;-inkscape-font-specification:DejaVuSans">libkokiCmarkerC349C(v0.5)Cdev:CTOKEN_SIDEC(NetCC,CCornerC3;C49)</tspan></text>
<path
         id="path24"
         style="fill:#333333;fill-opacity:1;fill-rule:nonzero;stroke:none"
         d="m 101.813,473.854 c 0,-3.261 -2.645,-5.906 -5.907,-5.906 -3.261,0 -5.906,2.645 -5.906,5.906 0,3.262 2.645,5.907 5.906,5.907 3.262,0 5.907,-2.645 5.907,-5.907" /></g></g></svg>