<?xml version="1.0" encoding="UTF-8" standalone="no"?>
<!-- Created with Inkscape (http://www.inkscape.org/) -->

<svg
   xmlns:dc="http://purl.org/dc/elements/1.1/"
   xmlns:cc="http://creativecommons.org/ns#"
   xmlns:rdf="http://www.w3.org/1999/02/22-rdf-syntax-ns#"
   xmlns:svg="http://www.w3.org/2000/svg"
   xmlns="http://www.w3.org/2000/svg"
   xmlns:sodipodi="http://sodipodi.sourceforge.net/DTD/sodipodi-0.dtd"
   xmlns:inkscape="http://www.inkscape.org/namespaces/inkscape"
   id="svg2"
   version="1.1"
   inkscape:version="0.48.5 r10040"
   width="885.82672"
   height="885.82672"
   xml:space="preserve"
   sodipodi:docname="dev-TOKEN_NET_C_TOP-44.svg"><metadata
     id="metadata8"><rdf:RDF><cc:Work
         rdf:about=""><dc:format>image/svg+xml</dc:format><dc:type
           rdf:resource="http://purl.org/dc/dcmitype/StillImage" /><dc:title></dc:title></cc:Work></rdf:RDF></metadata><defs
     id="defs6" /><sodipodi:namedview
     pagecolor="#ffffff"
     bordercolor="#666666"
     borderopacity="1"
     objecttolerance="10"
     gridtolerance="10"
     guidetolerance="10"
     inkscape:pageopacity="0"
     inkscape:pageshadow="2"
     inkscape:window-width="2048"
     inkscape:window-height="1089"
     id="namedview4"
     showgrid="false"
     inkscape:zoom="0.33136722"
     inkscape:cx="-339.50336"
     inkscape:cy="356.10082"
     inkscape:window-x="-8"
     inkscape:window-y="-8"
     inkscape:window-maximized="1"
     inkscape:current-layer="g10"
     units="mm" /><g
     id="g10"
     inkscape:groupmode="layer"
     inkscape:label="dev-TOKEN_NET_C_TOP-44"
     transform="matrix(1.25,0,0,-1.25,-8.5743427e-4,885.8263)"><rect
       width="708.66144"
       height="708.66144"
       x="0.00068594742"
       y="-708.66107"
       id="rect2990"
       style="fill:#999999;fill-opacity:1;stroke:none"
       transform="scale(1,-1)" /><rect
       width="566.92914"
       height="566.92914"
       x="70.866837"
       y="-637.7951"
       id="rect2990-1"
       style="fill:#ffffff;fill-opacity:1;stroke:none"
       transform="scale(1,-1)" /><g
       id="g12"
       transform="translate(69.450374,69.450352)"><path
   d="m 1.418,568.343 566.926,0 0,-566.926 -566.926,0 0,566.926 z"
   style="fill:none;stroke:#b3b3b3;stroke-width:2.83462811;stroke-linecap:butt;stroke-linejoin:miter;stroke-miterlimit:10;stroke-opacity:1;stroke-dasharray:none"
   id="path14"
   inkscape:connector-curvature="0" /><path
   d="m 48.66,521.097 472.438,0 0,-472.438 -472.438,0 0,472.438 z"
   style="fill:#000000;fill-opacity:1;fill-rule:nonzero;stroke:none"
   id="path16"
   inkscape:connector-curvature="0" /><path
   d="m 143.148,426.612 47.243,0 0,-47.242 -47.243,0 0,47.242 z m 47.247,0 47.242,0 0,-47.242 -47.242,0 0,47.242 z m 94.484,0 47.242,0 0,-47.242 -47.242,0 0,47.242 z m 0,-47.246 47.242,0 0,-47.242 -47.242,0 0,47.242 z m 47.246,0 47.242,0 0,-47.242 -47.242,0 0,47.242 z m -141.73,-47.242 47.242,0 0,-47.242 -47.242,0 0,47.242 z m 94.484,0 47.242,0 0,-47.242 -47.242,0 0,47.242 z m -141.731,-47.246 47.243,0 0,-47.242 -47.243,0 0,47.242 z m 47.247,0 47.242,0 0,-47.242 -47.242,0 0,47.242 z m 0,-47.242 47.242,0 0,-47.243 -47.242,0 0,47.243 z m 47.242,0 47.242,0 0,-47.243 -47.242,0 0,47.243 z m 94.488,0 47.242,0 0,-47.243 -47.242,0 0,47.243 z m 47.242,0 47.242,0 0,-47.243 -47.242,0 0,47.243 z m -188.972,-47.243 47.242,0 0,-47.242 -47.242,0 0,47.242 z"
   style="fill:#ffffff;fill-opacity:1;fill-rule:nonzero;stroke:none"
   id="path18"
   inkscape:connector-curvature="0" /><text
   transform="matrix(1,0,0,-1,57.162902,57.16401)"
   id="text20"><tspan
     style="font-size:8.50388336px;font-variant:normal;font-weight:normal;writing-mode:lr-tb;fill:#808080;fill-opacity:1;fill-rule:nonzero;stroke:none;font-family:DejaVu Sans;-inkscape-font-specification:DejaVuSans"
     x="0 2.3555756 4.7111511 10.102613 15.00085 20.196722 25.12047 27.476046 30.171778 38.454559 43.633423 47.103008 52.026756 57.256645 60.75174 63.447472 70.565224 75.948181 81.356651 84.052376 87.368896 92.394691 97.803162 100.47338 105.85634 109.17285 117.25154 122.643 127.87289 132.89868 135.73048 138.42621 143.61357 150.30614 155.87617 161.1911 167.552 171.80396 176.99132 183.68387 188.81172 191.50745 194.82396 201.18486 206.41475 209.72276 212.41849 218.32019 221.17749 223.87323 229.28169 234.69017"
     y="0"
     sodipodi:role="line"
     id="tspan22">libkoki marker #44 (v0.5) dev: TOKEN_TOP (Net C; 44)</tspan></text>

<path
   d="m 101.813,473.854 c 0,-3.261 -2.645,-5.906 -5.907,-5.906 -3.261,0 -5.906,2.645 -5.906,5.906 0,3.262 2.645,5.907 5.906,5.907 3.262,0 5.907,-2.645 5.907,-5.907"
   style="fill:#333333;fill-opacity:1;fill-rule:nonzero;stroke:none"
   id="path24"
   inkscape:connector-curvature="0" /></g></g></svg>